<svg width="193" height="102" viewBox="0 0 193 102" fill="none" xmlns="http://www.w3.org/2000/svg">
<path fill-rule="evenodd" clip-rule="evenodd" d="M0 17.1612V34.1612H8.5H17V17.1612V0.161194H8.5H0V17.1612ZM67 21.1612V42.1612H45.182C19.616 42.1612 15.297 43.0032 8.442 49.3212C1.192 56.0042 0 60.7172 0 82.6992V101.161H8.5H17V83.7082C17 65.0922 17.59 62.1252 21.657 60.2712C23.201 59.5682 31.954 59.1612 45.547 59.1612H67V80.1612V101.161H75.5H84V50.6612V0.161194H75.5H67V21.1612ZM99 1.25719C99 4.36519 115.84 41.7422 119.299 46.3122L123.155 51.4062L120.135 54.5342C116.817 57.9702 114.276 63.1102 104.622 85.9112L98.166 101.161L107.333 101.151L116.5 101.14L123.295 85.3412C127.032 76.6522 130.926 68.1682 131.947 66.4882C134.072 62.9942 141.237 59.1512 145.566 59.1832C149.253 59.2112 155.917 62.2232 158.354 64.9632C159.374 66.1102 163.48 74.6112 167.479 83.8552L174.75 100.661L183.997 100.95C191.232 101.176 193.131 100.959 192.723 99.9502C192.437 99.2412 188.277 89.5422 183.48 78.3962C176.26 61.6202 173.961 57.2822 170.129 53.2032C164.585 47.3022 156.767 43.4742 148.491 42.6082C140.106 41.7312 136.728 40.5352 133.747 37.3882C132.326 35.8882 127.847 27.0112 123.792 17.6612L116.42 0.661194L107.71 0.372194C101.545 0.168194 99 0.426194 99 1.25719ZM166.506 15.1492C162.378 23.3922 159 30.3182 159 30.5402C159 30.7622 160.09 31.2182 161.423 31.5522C162.756 31.8872 165.874 33.7082 168.351 35.5992C171.682 38.1422 173.107 38.7282 173.817 37.8502C175.291 36.0262 192 2.32019 192 1.17219C192 0.566194 188.401 0.161194 183.006 0.161194H174.013L166.506 15.1492Z" fill="white"/>
</svg>
