<?xml version="1.0" encoding="UTF-8" standalone="no"?>
<!DOCTYPE svg PUBLIC "-//W3C//DTD SVG 1.1//EN" "http://www.w3.org/Graphics/SVG/1.1/DTD/svg11.dtd">
<svg width="100%" height="100%" viewBox="0 0 1671 234" version="1.1" xmlns="http://www.w3.org/2000/svg" xmlns:xlink="http://www.w3.org/1999/xlink" xml:space="preserve" xmlns:serif="http://www.serif.com/" style="fill-rule:evenodd;clip-rule:evenodd;stroke-linejoin:round;stroke-miterlimit:2;">
    <g transform="matrix(4.16667,0,0,4.16667,0,0)">
        <path d="M40.274,23.769L40.271,23.778C40.816,25.395 41.125,27.119 41.125,28.919C41.125,36.721 35.57,43.222 28.2,44.692L28.2,56L48.021,44.557C49.293,43.823 50.077,42.466 50.077,40.997L50.077,18.109L40.274,23.769Z" style="fill:rgb(35,31,32);fill-rule:nonzero;"/>
        <path d="M12.985,18.29C15.933,14.95 20.233,12.832 25.038,12.832C29.844,12.832 34.145,14.95 37.092,18.291L37.106,18.296L46.915,12.632L27.094,1.188C25.822,0.454 24.255,0.454 22.983,1.188L3.162,12.632L12.969,18.295L12.985,18.29Z" style="fill:rgb(35,31,32);fill-rule:nonzero;"/>
        <path d="M8.951,28.919C8.951,27.119 9.26,25.394 9.805,23.777L9.802,23.769L0,18.109L0,40.997C0,42.466 0.783,43.823 2.055,44.557L21.875,56L21.875,44.691C14.505,43.221 8.951,36.721 8.951,28.919Z" style="fill:rgb(35,31,32);fill-rule:nonzero;"/>
        <path d="M33.093,28.919C33.093,33.368 29.487,36.974 25.038,36.974C20.589,36.974 16.983,33.368 16.983,28.919C16.983,24.47 20.589,20.864 25.038,20.864C29.487,20.864 33.093,24.47 33.093,28.919Z" style="fill:rgb(35,31,32);fill-rule:nonzero;"/>
        <path d="M263.808,38.924L253.43,38.924C244.445,38.924 243.29,37.787 243.288,28.897C243.288,20.006 244.439,18.864 253.43,18.864L263.808,18.864L263.808,38.924ZM263.808,1.236L263.808,12.177L250.927,12.177C248.149,12.177 245.418,12.401 242.68,12.847C238.289,13.564 235.589,17.642 235.208,21.697C234.751,26.516 234.751,31.272 235.208,36.091C235.589,40.147 238.289,44.224 242.68,44.941C245.418,45.389 248.149,45.61 250.927,45.61C258.039,45.623 265.148,45.636 272.26,45.649L272.26,1.236L263.808,1.236Z" style="fill:rgb(35,31,32);fill-rule:nonzero;"/>
        <path d="M298.119,38.924L287.741,38.924L287.741,18.864L298.119,18.864C307.109,18.864 308.261,20.006 308.261,28.897C308.26,37.787 307.103,38.924 298.119,38.924ZM316.341,21.697C315.96,17.642 313.26,13.564 308.869,12.847C306.131,12.401 303.399,12.177 300.622,12.177L287.741,12.177L287.741,1.236L279.29,1.236L279.29,45.649C286.4,45.636 293.51,45.623 300.622,45.61C303.399,45.61 306.131,45.389 308.869,44.941C313.26,44.224 315.96,40.147 316.341,36.091C316.799,31.272 316.799,26.516 316.341,21.697Z" style="fill:rgb(35,31,32);fill-rule:nonzero;"/>
        <path d="M194.843,34.306C194.673,36.162 193.972,37.274 192.329,38.213C191.074,38.937 189.796,38.926 188.45,39.003C185.476,39.176 182.528,39.133 179.562,38.878C177.548,38.706 176.403,37.95 175.475,36.181C174.859,35.006 174.871,33.817 174.794,32.58C174.616,29.659 174.66,26.39 174.925,23.474C175.095,21.617 175.795,20.505 177.439,19.565C178.695,18.843 179.972,18.853 181.317,18.774C184.291,18.604 187.239,18.645 190.205,18.902C192.219,19.074 193.365,19.828 194.292,21.597C194.909,22.772 194.898,23.959 194.975,25.197C195.151,28.12 195.108,31.39 194.843,34.306ZM203.182,21.533C202.68,16.974 199.1,13.332 194.484,12.683C188.022,11.777 181.746,11.777 175.282,12.683C170.667,13.332 167.087,16.974 166.586,21.533C166.054,26.359 166.054,31.474 166.586,36.3C167.087,40.859 170.667,44.502 175.282,45.15C181.746,46.057 188.022,46.057 194.484,45.15C199.1,44.502 202.68,40.859 203.182,36.3C203.713,31.474 203.713,26.359 203.182,21.533Z" style="fill:rgb(35,31,32);fill-rule:nonzero;"/>
        <path d="M350.317,34.306C350.147,36.162 349.446,37.274 347.804,38.213C346.549,38.937 345.27,38.926 343.925,39.003C340.95,39.176 338.003,39.133 335.036,38.878C333.022,38.706 331.878,37.95 330.95,36.181C330.334,35.006 330.345,33.817 330.268,32.58C330.091,29.659 330.135,26.39 330.399,23.474C330.569,21.617 331.27,20.505 332.914,19.565C334.17,18.843 335.446,18.853 336.792,18.774C339.766,18.604 342.714,18.645 345.68,18.902C347.693,19.074 348.839,19.828 349.767,21.597C350.383,22.772 350.373,23.959 350.449,25.197C350.626,28.12 350.583,31.39 350.317,34.306ZM358.656,21.533C358.154,16.974 354.574,13.332 349.959,12.683C343.497,11.777 337.22,11.777 330.757,12.683C326.143,13.332 322.561,16.974 322.061,21.533C321.528,26.359 321.528,31.474 322.061,36.3C322.561,40.859 326.143,44.502 330.757,45.15C337.22,46.057 343.497,46.057 349.959,45.15C354.574,44.502 358.154,40.859 358.656,36.3C359.187,31.474 359.187,26.359 358.656,21.533Z" style="fill:rgb(35,31,32);fill-rule:nonzero;"/>
        <path d="M222.539,19.125C221.903,19.224 221.277,19.4 220.657,19.756C220.264,19.981 219.887,20.238 219.551,20.544C219.11,20.947 218.759,21.436 218.53,21.988C218.235,22.7 218.163,23.475 218.099,24.236C217.96,25.88 217.997,27.523 217.997,29.171L217.997,45.649L209.404,45.649L209.404,28.894C209.404,26.485 209.536,24.093 209.799,21.697C209.799,20.572 210.308,19.296 210.807,18.309C211.331,17.273 212.037,16.332 212.881,15.536C213.75,14.716 214.764,14.053 215.861,13.582C217.211,13.003 218.669,12.795 220.116,12.608C221.301,12.454 222.488,12.382 223.682,12.335C226.056,12.241 231.841,12.128 231.841,12.128L231.841,18.844C231.841,18.844 225.177,18.709 222.539,19.125Z" style="fill:rgb(35,31,32);fill-rule:nonzero;"/>
        <path d="M78.071,19.125C77.436,19.224 76.81,19.4 76.189,19.756C75.796,19.981 75.418,20.238 75.083,20.544C74.642,20.947 74.291,21.436 74.062,21.988C73.768,22.7 73.695,23.475 73.631,24.236C73.492,25.88 73.529,27.523 73.529,29.171L73.529,45.649L64.937,45.649L64.937,28.894C64.937,26.485 65.068,24.093 65.332,21.697C65.332,20.572 65.84,19.296 66.339,18.309C66.863,17.273 67.569,16.332 68.414,15.536C69.282,14.716 70.296,14.053 71.394,13.582C72.743,13.003 74.202,12.795 75.648,12.608C76.833,12.454 78.02,12.382 79.214,12.335C81.588,12.241 87.373,12.128 87.373,12.128L87.373,18.844C87.373,18.844 80.709,18.709 78.071,19.125Z" style="fill:rgb(35,31,32);fill-rule:nonzero;"/>
        <path d="M148.354,28.917L165.362,12.186L156.023,12.186L143.571,25.57L142.679,25.57C142.679,25.57 142.687,15.978 142.687,12.186L134.183,12.186L134.183,45.649L142.687,45.649C142.687,41.856 142.674,32.252 142.674,32.252L143.546,32.252L156.024,45.649L165.366,45.649L148.354,28.917Z" style="fill:rgb(35,31,32);fill-rule:nonzero;"/>
        <path d="M400.169,12.186L390.828,12.186L380.122,23.836L369.417,12.186L360.076,12.186L375.452,28.918L360.077,45.649L369.416,45.649L380.122,33.998L390.828,45.649L400.168,45.649L384.793,28.918L400.169,12.186Z" style="fill:rgb(35,31,32);fill-rule:nonzero;"/>
        <path d="M99.291,21.983C99.473,20.436 100.716,19.217 102.289,19.046C106.852,18.542 111.334,18.542 115.897,19.046C117.471,19.217 118.715,20.436 118.897,21.983C119.029,23.118 119.131,24.251 119.191,25.395L98.994,25.395C99.057,24.251 99.157,23.118 99.291,21.983ZM127.416,35.804L118.943,35.804C118.879,36.062 118.73,36.512 118.73,36.512C118.218,37.95 117.437,38.561 115.897,38.731C111.334,39.235 106.852,39.235 102.289,38.731C100.716,38.558 99.473,37.34 99.291,35.79C99.093,34.129 98.974,32.086 98.921,30.41L127.782,30.41L127.782,29.418C127.811,26.769 127.682,24.14 127.392,21.504C126.891,16.945 123.31,13.303 118.695,12.654C112.231,11.749 105.955,11.749 99.492,12.654C94.878,13.303 91.297,16.945 90.794,21.504C90.265,26.33 90.265,31.445 90.794,36.271C91.297,40.831 94.878,44.472 99.492,45.122C105.955,46.029 112.231,46.029 118.695,45.122C119.115,45.062 119.532,44.978 119.941,44.868C120.346,44.758 120.745,44.624 121.133,44.467C121.517,44.311 121.891,44.132 122.253,43.931C122.612,43.731 122.959,43.509 123.292,43.268C123.623,43.028 123.939,42.767 124.239,42.489C124.538,42.211 124.82,41.915 125.083,41.602C125.347,41.29 125.592,40.961 125.815,40.618C126.04,40.273 126.244,39.915 126.425,39.545C126.687,39.009 126.908,38.46 127.058,37.882C127.215,37.311 127.303,36.723 127.387,36.138C127.403,36.028 127.414,35.916 127.416,35.804Z" style="fill:rgb(35,31,32);fill-rule:nonzero;"/>
    </g>
</svg>
